<mxfile host="" modified="2020-06-09T08:23:45.607Z" agent="5.0 (Windows NT 10.0; Win64; x64) AppleWebKit/537.36 (KHTML, like Gecko) Code/1.45.0 Chrome/78.0.3904.130 Electron/7.2.4 Safari/537.36" etag="g-1C_XjMwul15rFU-xbV" version="13.1.3">
    <diagram id="6hGFLwfOUW9BJ-s0fimq" name="Page-1">
        <mxGraphModel dx="728" dy="1727" grid="1" gridSize="10" guides="1" tooltips="1" connect="1" arrows="1" fold="1" page="1" pageScale="1" pageWidth="827" pageHeight="1169" math="0" shadow="0">
            <root>
                <mxCell id="0"/>
                <mxCell id="1" parent="0"/>
                <mxCell id="2" value="&lt;span style=&quot;background-color: rgb(0 , 0 , 0)&quot;&gt;Admin&lt;br&gt;&lt;/span&gt;" style="shape=umlActor;verticalLabelPosition=bottom;labelBackgroundColor=#ffffff;verticalAlign=top;html=1;" vertex="1" parent="1">
                    <mxGeometry x="45" y="60" width="35" height="70" as="geometry"/>
                </mxCell>
                <mxCell id="3" value="" style="html=1;" vertex="1" parent="1">
                    <mxGeometry x="120" y="-20" width="530" height="820" as="geometry"/>
                </mxCell>
                <mxCell id="5" value="Actor" style="shape=umlActor;verticalLabelPosition=bottom;labelBackgroundColor=#ffffff;verticalAlign=top;html=1;" vertex="1" parent="1">
                    <mxGeometry x="50" y="190" width="30" height="60" as="geometry"/>
                </mxCell>
                <mxCell id="6" value="Actor" style="shape=umlActor;verticalLabelPosition=bottom;labelBackgroundColor=#ffffff;verticalAlign=top;html=1;" vertex="1" parent="1">
                    <mxGeometry x="50" y="320" width="30" height="60" as="geometry"/>
                </mxCell>
                <mxCell id="8" value="Actor" style="shape=umlActor;verticalLabelPosition=bottom;labelBackgroundColor=#ffffff;verticalAlign=top;html=1;" vertex="1" parent="1">
                    <mxGeometry x="50" y="430" width="30" height="60" as="geometry"/>
                </mxCell>
                <mxCell id="9" value="Actor" style="shape=umlActor;verticalLabelPosition=bottom;labelBackgroundColor=#ffffff;verticalAlign=top;html=1;" vertex="1" parent="1">
                    <mxGeometry x="50" y="550" width="30" height="60" as="geometry"/>
                </mxCell>
                <mxCell id="10" value="&lt;span style=&quot;background-color: rgb(0 , 0 , 0)&quot;&gt;Pimpinan Tendik&lt;/span&gt;" style="shape=umlActor;verticalLabelPosition=bottom;labelBackgroundColor=#ffffff;verticalAlign=top;html=1;" vertex="1" parent="1">
                    <mxGeometry x="50" y="670" width="30" height="60" as="geometry"/>
                </mxCell>
                <mxCell id="13" value="Login" style="ellipse;whiteSpace=wrap;html=1;" vertex="1" parent="1">
                    <mxGeometry x="150" y="362.5" width="110" height="55" as="geometry"/>
                </mxCell>
                <mxCell id="14" value="Mengelola data user dan peserta dosen dan tendik" style="ellipse;whiteSpace=wrap;html=1;" vertex="1" parent="1">
                    <mxGeometry x="290" y="10" width="150" height="60" as="geometry"/>
                </mxCell>
                <mxCell id="15" value="ubah data" style="ellipse;whiteSpace=wrap;html=1;" vertex="1" parent="1">
                    <mxGeometry x="510" y="40" width="80" height="40" as="geometry"/>
                </mxCell>
                <mxCell id="16" value="hapus data" style="ellipse;whiteSpace=wrap;html=1;" vertex="1" parent="1">
                    <mxGeometry x="510" y="110" width="80" height="40" as="geometry"/>
                </mxCell>
                <mxCell id="17" value="tambah data" style="ellipse;whiteSpace=wrap;html=1;" vertex="1" parent="1">
                    <mxGeometry x="510" y="180" width="80" height="40" as="geometry"/>
                </mxCell>
                <mxCell id="18" style="edgeStyle=orthogonalEdgeStyle;rounded=0;orthogonalLoop=1;jettySize=auto;html=1;exitX=0.5;exitY=1;exitDx=0;exitDy=0;" edge="1" parent="1" source="16" target="16">
                    <mxGeometry relative="1" as="geometry"/>
                </mxCell>
                <mxCell id="19" value="Menilai atau mengisi kuesioner tendik" style="ellipse;whiteSpace=wrap;html=1;" vertex="1" parent="1">
                    <mxGeometry x="180" y="500" width="130" height="60" as="geometry"/>
                </mxCell>
                <mxCell id="23" value="Menilai atau mengisi kuesioner dosen" style="ellipse;whiteSpace=wrap;html=1;" vertex="1" parent="1">
                    <mxGeometry x="300" y="417.5" width="130" height="60" as="geometry"/>
                </mxCell>
                <mxCell id="30" value="Menerima hasil inputan kuesioner" style="ellipse;whiteSpace=wrap;html=1;" vertex="1" parent="1">
                    <mxGeometry x="295" y="165" width="145" height="55" as="geometry"/>
                </mxCell>
                <mxCell id="31" value="Memproses data peserta dosen dan tendik&amp;nbsp;&amp;nbsp;" style="ellipse;whiteSpace=wrap;html=1;" vertex="1" parent="1">
                    <mxGeometry x="344" y="250" width="140" height="60" as="geometry"/>
                </mxCell>
                <mxCell id="32" value="Melihat hasil urutan ranking dosen dan tendik" style="ellipse;whiteSpace=wrap;html=1;" vertex="1" parent="1">
                    <mxGeometry x="440" y="330" width="140" height="70" as="geometry"/>
                </mxCell>
            </root>
        </mxGraphModel>
    </diagram>
</mxfile>